<svg version="1.1" xmlns="http://www.w3.org/2000/svg" viewBox="0 0 1703 663" width="1703" height="663">
  <!-- svg-source:excalidraw -->
  
  <defs>
    <style>
      @font-face {
        font-family: "Virgil";
        src: url("https://excalidraw.com/Virgil.woff2");
      }
      @font-face {
        font-family: "Cascadia";
        src: url("https://excalidraw.com/Cascadia.woff2");
      }
    </style>
  </defs>
  <rect x="0" y="0" width="1703" height="663" fill="#ffffff"></rect><g transform="translate(52 500) rotate(0 40 12.5)"><text x="0" y="18" font-family="Virgil, Segoe UI Emoji" font-size="20px" fill="#000000" text-anchor="start" style="white-space: pre;" direction="ltr">MOVING</text></g><g stroke-linecap="round" transform="translate(433.5 461.5) rotate(0 81 47)"><path d="M-0.91 1.16 C43.6 1.13, 86.74 0.59, 160.8 1.17 M-0.41 -0.1 C32.62 -1.41, 65.66 -2.22, 162.71 -0.01 M161.68 1 C161.66 26.03, 163.92 54.94, 162.75 94.06 M162.28 0.61 C162.05 27.65, 160.95 55.84, 161.81 93.33 M163.77 95.67 C124.2 95.19, 88.8 94.06, -1.96 93.85 M162.5 94.1 C116.41 93.57, 70.84 94.46, 0.04 93.84 M0.98 93.83 C0.01 62.79, 2 30.27, -0.76 -0.79 M-0.87 94.47 C0.31 59.13, 1.29 22.8, -0.12 -0.22" stroke="#000000" stroke-width="1" fill="none"></path></g><g stroke-linecap="round" transform="translate(10 464) rotate(0 81 47)"><path d="M-0.63 0.64 C58.32 0.47, 116.01 -2.87, 162.79 -0.67 M0.12 0.88 C55.15 -1.78, 107.89 -0.6, 161.95 -0.68 M162.77 1.75 C161.75 29.28, 161.13 58.08, 163.31 95.53 M162.83 0.88 C162.98 35.76, 163.88 70.13, 162.92 94.53 M163.69 95.17 C116.22 95.45, 73.26 95.77, 1.98 95.49 M162.79 93.41 C129.36 95, 96.11 94.48, 0.87 93.92 M-0.19 94.18 C2.16 61.15, -0.23 28.45, -1.68 -0.36 M0.12 94.46 C0.62 65.82, 0.05 39.27, 0.1 0.11" stroke="#000000" stroke-width="1" fill="none"></path></g><g transform="translate(482 496) rotate(0 33 25)"><text x="0" y="18" font-family="Virgil, Segoe UI Emoji" font-size="20px" fill="#000000" text-anchor="start" style="white-space: pre;" direction="ltr">READY</text><text x="0" y="43" font-family="Virgil, Segoe UI Emoji" font-size="20px" fill="#000000" text-anchor="start" style="white-space: pre;" direction="ltr"></text></g><g stroke-linecap="round" transform="translate(845 462) rotate(0 81 47)"><path d="M-0.44 0.14 C46.28 3.21, 95.71 -0.21, 162.27 1.01 M-0.83 -0.58 C35.19 -0.29, 71.71 -1.01, 161.55 -0.97 M160.86 -0.23 C162.09 22.72, 160.85 43.54, 163.4 94.26 M162.16 -0.23 C161.6 20.97, 162 43.65, 161.42 94.97 M160.6 93.72 C114.22 91.01, 66.07 92.67, -0.99 94.64 M162.59 93.91 C117.7 93.39, 72.49 94.4, -0.69 93.87 M0.03 93.2 C-1.28 56.73, 1.74 23.39, -1.49 -0.77 M-0.53 94.96 C0.01 68.03, 0.6 40.99, 0.74 0.62" stroke="#000000" stroke-width="1" fill="none"></path></g><g transform="translate(864.5 496.5) rotate(0 61.5 12.5)"><text x="61.5" y="18" font-family="Virgil, Segoe UI Emoji" font-size="20px" fill="#000000" text-anchor="middle" style="white-space: pre;" direction="ltr">THRUSTING</text></g><g stroke-linecap="round" transform="translate(841 250) rotate(0 81 47)"><path d="M-0.17 -1.81 C61.43 0.47, 123.62 1.47, 160.06 -0.82 M0.67 0.18 C45.27 -0.35, 92.19 -1.44, 161.25 0.27 M162.25 1.28 C160.85 29.19, 161.44 55.83, 163.9 95.94 M162.47 -0.68 C162.58 27.28, 161.65 55.18, 162.71 93.94 M162.27 92.28 C118.58 91.49, 76.76 91.01, 1.07 92.79 M161.78 94.16 C124.38 95.05, 87.92 95.91, -0.66 94.65 M-1.61 94.98 C-1.21 69.35, -1.64 41.36, -0.99 -0.44 M-0.95 94.25 C0.54 71.14, -0.74 47.72, -0.81 0.1" stroke="#000000" stroke-width="1" fill="none"></path></g><g transform="translate(870 286) rotate(0 54 12.5)"><text x="0" y="18" font-family="Virgil, Segoe UI Emoji" font-size="20px" fill="#000000" text-anchor="start" style="white-space: pre;" direction="ltr">COASTING</text></g><g stroke-linecap="round" transform="translate(1063 10) rotate(0 81 47)"><path d="M-0.49 0.75 C51.19 -0.41, 102.18 0.04, 162.94 1.03 M0.66 0.97 C58.35 -2.04, 115.11 -0.45, 161.29 -0.45 M160.64 -1.4 C162.94 35.97, 160.96 71.76, 163.29 92.25 M161.27 -0.31 C160.93 30.64, 160.67 63.87, 161.21 93.22 M160.06 93.83 C125 94.93, 85.78 94.37, 0.51 94.63 M161.01 93.36 C126.52 93.86, 88.63 94.06, 0.6 93.99 M-1.57 94.39 C0.43 62.59, -1.97 29.27, 1.35 0.49 M0.46 94.59 C0.26 65.45, 0.01 37.05, -0.82 0.85" stroke="#000000" stroke-width="1" fill="none"></path></g><g transform="translate(1102 44.5) rotate(0 42 12.5)"><text x="42" y="18" font-family="Virgil, Segoe UI Emoji" font-size="20px" fill="#000000" text-anchor="middle" style="white-space: pre;" direction="ltr">APOGEE</text></g><g stroke-linecap="round" transform="translate(1291 141) rotate(0 81 47)"><path d="M0.7 -0.67 C50.71 -0.04, 106.82 2.05, 160.02 1.21 M0.25 -0.54 C57.59 -0.43, 117.08 -0.42, 161.13 -0.54 M162.44 -0.29 C163.14 35.73, 163.15 69.52, 162.42 95.12 M162.1 -0.65 C163.45 20.75, 163.39 41.89, 161.26 94.74 M160.16 94.55 C116.67 92.64, 75.36 93.24, -1.16 95.55 M161.3 94.71 C129.09 94.72, 94.98 95.76, 0.35 93.54 M0.89 95.05 C1.09 65.69, -0.89 37.4, -0.7 -1.39 M0.76 94.44 C0.25 68.97, 0.43 44.56, -0.61 -0.07" stroke="#000000" stroke-width="1" fill="none"></path></g><g transform="translate(1328.5 175.5) rotate(0 43.5 12.5)"><text x="43.5" y="18" font-family="Virgil, Segoe UI Emoji" font-size="20px" fill="#000000" text-anchor="middle" style="white-space: pre;" direction="ltr">DROGUE</text></g><g stroke-linecap="round" transform="translate(1293 301) rotate(0 81 47)"><path d="M0.89 1.05 C51.28 -0.35, 98.89 0.13, 161.3 -1.39 M0.76 0.44 C41.63 -1.11, 83.72 -1.2, 161.39 -0.07 M163.63 -0.4 C160.61 21.51, 159.78 42.32, 161.02 95.49 M162.85 0.56 C161.9 21.41, 162.83 42.41, 162.74 93.75 M163.03 93.2 C109.29 94.9, 58.77 95.67, -1.98 93.77 M161.09 93.14 C103.93 95.96, 45.96 94.66, 0.78 94.43 M-0.92 92.71 C-0.85 59.41, 1.2 24.08, 0.89 0.69 M0.76 94.1 C0.28 69.29, 0.17 43.6, -0.4 -0.13" stroke="#000000" stroke-width="1" fill="none"></path></g><g transform="translate(1351 338.5) rotate(0 26 12.5)"><text x="26" y="18" font-family="Virgil, Segoe UI Emoji" font-size="20px" fill="#000000" text-anchor="middle" style="white-space: pre;" direction="ltr">MAIN</text></g><g stroke-linecap="round" transform="translate(1293 456) rotate(0 81 47)"><path d="M1.53 0.2 C43.36 2.38, 86.94 1.82, 161.2 -0.26 M0.41 -0.91 C52.32 -0.66, 103.72 0.03, 162.2 0.25 M163.19 0.11 C162.91 24.49, 163.42 47.26, 161.24 94.51 M161.98 -0.92 C161.94 22.26, 161.54 46.64, 161.62 94.89 M160.82 94.33 C122.23 93.78, 84.01 94.46, -1.47 95.83 M162.33 94.51 C123.79 95.9, 86.29 95.21, 0.85 94.37 M-0.44 95.98 C0.69 66.53, -0.53 36.07, -0.77 0.31 M0.58 93.13 C-0.15 63.73, -0.11 33.65, -0.33 0.24" stroke="#000000" stroke-width="1" fill="none"></path></g><g transform="translate(1310.5 490.5) rotate(0 63.5 12.5)"><text x="63.5" y="18" font-family="Virgil, Segoe UI Emoji" font-size="20px" fill="#000000" text-anchor="middle" style="white-space: pre;" direction="ltr">TOUCHDOWN</text></g><g stroke-linecap="round"><g transform="translate(184 469) rotate(0 119.82513463981451 -0.7258015144616365)"><path d="M-0.35 0.12 C39.57 -0.16, 200.3 -1.55, 240 -1.57 M1.66 -0.86 C41.47 -0.99, 199.83 -0.17, 239.58 -0.34" stroke="#000000" stroke-width="1" fill="none"></path></g><g transform="translate(184 469) rotate(0 119.82513463981451 -0.7258015144616365)"><path d="M211.58 11.56 C220.02 4.61, 232.17 2.65, 239.69 1.27 M211.74 10.88 C218.2 7.83, 225.45 5.7, 240.14 -0.82" stroke="#000000" stroke-width="1" fill="none"></path></g><g transform="translate(184 469) rotate(0 119.82513463981451 -0.7258015144616365)"><path d="M211.6 -8.96 C220.05 -8.93, 232.19 -3.89, 239.69 1.27 M211.77 -9.64 C218.41 -7.4, 225.65 -4.25, 240.14 -0.82" stroke="#000000" stroke-width="1" fill="none"></path></g></g><g stroke-linecap="round"><g transform="translate(424 545) rotate(0 -116.48527009129526 -0.8425769126415048)"><path d="M-1.08 -0.35 C-39.95 -0.72, -194.15 -1.13, -232.72 -1.08 M0.55 -1.58 C-38.5 -1.34, -194.59 -0.58, -233.52 -0.11" stroke="#000000" stroke-width="1" fill="none"></path></g><g transform="translate(424 545) rotate(0 -116.48527009129526 -0.8425769126415048)"><path d="M-205.99 -10.13 C-216.77 -6.45, -224.69 -2.85, -233.97 -0.64 M-205.64 -10.53 C-213.75 -7.06, -221.1 -4.55, -234.03 -0.91" stroke="#000000" stroke-width="1" fill="none"></path></g><g transform="translate(424 545) rotate(0 -116.48527009129526 -0.8425769126415048)"><path d="M-205.83 10.39 C-216.86 7.02, -224.84 3.57, -233.97 -0.64 M-205.48 9.99 C-213.65 7.93, -221.04 4.93, -234.03 -0.91" stroke="#000000" stroke-width="1" fill="none"></path></g></g><g stroke-linecap="round"><g transform="translate(610 511) rotate(0 110.7190670130775 -0.3689399674460674)"><path d="M0.36 -1.08 C37.47 -1.33, 185.38 -1.76, 222.34 -1.69 M-0.9 0.96 C36.1 0.88, 184.51 -0.49, 221.58 -0.52" stroke="#000000" stroke-width="1" fill="none"></path></g><g transform="translate(610 511) rotate(0 110.7190670130775 -0.3689399674460674)"><path d="M191.63 10.47 C200.02 7.24, 209.41 4.53, 222.73 -0.11 M192.81 10.21 C204.37 6.16, 214.6 1.11, 222.4 0.4" stroke="#000000" stroke-width="1" fill="none"></path></g><g transform="translate(610 511) rotate(0 110.7190670130775 -0.3689399674460674)"><path d="M191.52 -10.05 C199.9 -7.65, 209.32 -4.74, 222.73 -0.11 M192.7 -10.31 C204.23 -6.39, 214.51 -3.47, 222.4 0.4" stroke="#000000" stroke-width="1" fill="none"></path></g></g><g stroke-linecap="round"><g transform="translate(924 451) rotate(0 -1.506488836659173 -45.83612232096493)"><path d="M0.03 1.19 C-0.3 -14.36, -1.78 -77.18, -2.06 -92.86 M-1.41 0.76 C-1.89 -14.68, -2.9 -76.31, -3.04 -91.77" stroke="#000000" stroke-width="1" fill="none"></path></g><g transform="translate(924 451) rotate(0 -1.506488836659173 -45.83612232096493)"><path d="M9.57 -63.83 C2.98 -71.32, -0.14 -78.15, -3.93 -93.35 M7.04 -64.45 C5.4 -72.33, 1.64 -79.27, -2.65 -91.4" stroke="#000000" stroke-width="1" fill="none"></path></g><g transform="translate(924 451) rotate(0 -1.506488836659173 -45.83612232096493)"><path d="M-10.95 -63.55 C-11.57 -71.12, -8.72 -78.04, -3.93 -93.35 M-13.48 -64.18 C-9.47 -72.12, -7.58 -79.14, -2.65 -91.4" stroke="#000000" stroke-width="1" fill="none"></path></g></g><g stroke-linecap="round"><g transform="translate(915 238) rotate(0 68.45222320382481 -91.20591314037333)"><path d="M0.42 0.17 C23.51 -30.09, 114.61 -150.51, 137.72 -180.65 M-0.82 -0.78 C22.16 -31.49, 113.34 -152.85, 136.63 -182.59" stroke="#000000" stroke-width="1" fill="none"></path></g><g transform="translate(915 238) rotate(0 68.45222320382481 -91.20591314037333)"><path d="M127.95 -154.42 C130.1 -158.8, 132.13 -165.4, 135.03 -181.02 M128.16 -153.52 C130.71 -163.92, 133.27 -175.61, 136.48 -183.05" stroke="#000000" stroke-width="1" fill="none"></path></g><g transform="translate(915 238) rotate(0 68.45222320382481 -91.20591314037333)"><path d="M111.65 -166.89 C117.66 -168.44, 123.46 -172.16, 135.03 -181.02 M111.86 -165.98 C120.52 -171.82, 129.13 -178.88, 136.48 -183.05" stroke="#000000" stroke-width="1" fill="none"></path></g></g><g stroke-linecap="round"><g transform="translate(1241 54) rotate(0 64.15270112456756 38.56674295092935)"><path d="M0.47 0.7 C21.53 13.46, 105.46 64.73, 126.91 77.11 M-0.74 0.03 C20.62 12.43, 107.43 62.95, 129.04 75.57" stroke="#000000" stroke-width="1" fill="none"></path></g><g transform="translate(1241 54) rotate(0 64.15270112456756 38.56674295092935)"><path d="M100.69 68.42 C111.64 73.86, 118.28 75.2, 130.67 76.41 M99.86 69.8 C106.75 72.15, 111.42 72.69, 129.73 74.89" stroke="#000000" stroke-width="1" fill="none"></path></g><g transform="translate(1241 54) rotate(0 64.15270112456756 38.56674295092935)"><path d="M111.02 50.69 C118.47 62.33, 121.52 69.82, 130.67 76.41 M110.19 52.07 C114.79 58.16, 117.23 62.53, 129.73 74.89" stroke="#000000" stroke-width="1" fill="none"></path></g></g><g stroke-linecap="round"><g transform="translate(1372 250) rotate(0 -0.8695806590094435 16.753142738081493)"><path d="M0.08 -0.6 C-0.09 4.85, -1.63 27.44, -1.97 33.06 M-1.33 1.7 C-1.05 7.24, -0.06 28.73, 0.23 34.1" stroke="#000000" stroke-width="1" fill="none"></path></g><g transform="translate(1372 250) rotate(0 -0.8695806590094435 16.753142738081493)"><path d="M-7.22 17.05 C-6.19 20.53, -4.67 24.29, 1.26 34.32 M-5.79 18.19 C-4.58 23.94, -1.66 29.54, 0.96 34.74" stroke="#000000" stroke-width="1" fill="none"></path></g><g transform="translate(1372 250) rotate(0 -0.8695806590094435 16.753142738081493)"><path d="M4.4 16.48 C2.85 20.09, 1.79 23.98, 1.26 34.32 M5.83 17.61 C2.91 23.65, 1.7 29.44, 0.96 34.74" stroke="#000000" stroke-width="1" fill="none"></path></g></g><g stroke-linecap="round"><g transform="translate(1373 410) rotate(0 -0.5713040943816168 18.296438807547133)"><path d="M-0.15 0.69 C0.12 6.55, 0.37 29.25, 0.55 35.03 M-1.69 0.01 C-1.43 6.08, -0.49 31.04, -0.11 36.58" stroke="#000000" stroke-width="1" fill="none"></path></g><g transform="translate(1373 410) rotate(0 -0.5713040943816168 18.296438807547133)"><path d="M-5.9 21.26 C-5.47 25.15, -3.53 26.23, 0.19 35.71 M-6.7 21.22 C-4.87 27.08, -1.58 33.31, -0.51 37.2" stroke="#000000" stroke-width="1" fill="none"></path></g><g transform="translate(1373 410) rotate(0 -0.5713040943816168 18.296438807547133)"><path d="M6.05 20.66 C4 24.65, 3.46 25.86, 0.19 35.71 M5.26 20.62 C2.42 26.66, 1.04 33.12, -0.51 37.2" stroke="#000000" stroke-width="1" fill="none"></path></g></g><g stroke-linecap="round"><g transform="translate(301 450) rotate(0 32.90110515892508 -27.845841300152244)"><path d="M0.65 -0.44 C11.17 -9.19, 53.24 -44.64, 64.05 -53.43 M-0.47 -1.71 C10.34 -10.74, 55.35 -46.36, 66.27 -55.26" stroke="#e67700" stroke-width="1" fill="none"></path></g><g transform="translate(301 450) rotate(0 32.90110515892508 -27.845841300152244)"><path d="M49.97 -31.19 C57.74 -38.52, 64.05 -50.71, 65.84 -54.8 M51.22 -30.21 C57.29 -39.5, 62.4 -50.09, 67.23 -55.44" stroke="#e67700" stroke-width="1" fill="none"></path></g><g transform="translate(301 450) rotate(0 32.90110515892508 -27.845841300152244)"><path d="M37.13 -47.2 C49.65 -48.53, 60.83 -54.65, 65.84 -54.8 M38.38 -46.22 C49.44 -49.31, 59.63 -53.56, 67.23 -55.44" stroke="#e67700" stroke-width="1" fill="none"></path></g></g><g stroke-linecap="round"><g transform="translate(319 554) rotate(0 -34.7019788492471 27.67133684277536)"><path d="M0.54 0.81 C-10.96 9.68, -58.4 44.69, -69.94 53.74 M-0.64 0.2 C-11.68 9.19, -56.27 46.28, -67.73 55.15" stroke="#e67700" stroke-width="1" fill="none"></path></g><g transform="translate(319 554) rotate(0 -34.7019788492471 27.67133684277536)"><path d="M-50.87 27.89 C-55.96 35.66, -57.05 39.77, -65.74 56.19 M-52.98 29.42 C-54.92 35.52, -59.02 42.41, -67.37 54.64" stroke="#e67700" stroke-width="1" fill="none"></path></g><g transform="translate(319 554) rotate(0 -34.7019788492471 27.67133684277536)"><path d="M-37.99 43.86 C-46 48.16, -49.94 48.74, -65.74 56.19 M-40.09 45.39 C-45.18 47.7, -52.38 50.75, -67.37 54.64" stroke="#e67700" stroke-width="1" fill="none"></path></g></g><g stroke-linecap="round"><g transform="translate(716 495) rotate(0 27.416382916318298 -24.38229572941549)"><path d="M-0.22 0.71 C9.22 -7.41, 47.36 -39.45, 56.63 -47.57 M-1.8 0.03 C7.55 -7.95, 46.66 -41.68, 56.02 -49.47" stroke="#e67700" stroke-width="1" fill="none"></path></g><g transform="translate(716 495) rotate(0 27.416382916318298 -24.38229572941549)"><path d="M42.36 -22.34 C46.03 -32.09, 49.69 -38.8, 56.41 -51.04 M40.4 -24.34 C44.74 -29.16, 46.99 -33.65, 56.59 -49.59" stroke="#e67700" stroke-width="1" fill="none"></path></g><g transform="translate(716 495) rotate(0 27.416382916318298 -24.38229572941549)"><path d="M29.07 -37.98 C36.83 -43.07, 44.41 -45.16, 56.41 -51.04 M27.11 -39.97 C34.19 -41.42, 39.3 -42.55, 56.59 -49.59" stroke="#e67700" stroke-width="1" fill="none"></path></g></g><g stroke-linecap="round"><g transform="translate(945 416) rotate(0 28.75726475007832 -19.67079402538019)"><path d="M-0.48 -0.88 C9.19 -7.43, 48.11 -32.27, 57.99 -38.66 M1.47 1.27 C10.98 -5.72, 47.54 -34.06, 57.04 -40.61" stroke="#e67700" stroke-width="1" fill="none"></path></g><g transform="translate(945 416) rotate(0 28.75726475007832 -19.67079402538019)"><path d="M38.96 -15.63 C45.84 -21.69, 49.88 -31.41, 55.13 -40.61 M39.76 -14.68 C43.9 -21.77, 49.19 -28.54, 56.35 -39.82" stroke="#e67700" stroke-width="1" fill="none"></path></g><g transform="translate(945 416) rotate(0 28.75726475007832 -19.67079402538019)"><path d="M26.79 -32.15 C37.4 -33.21, 45.09 -37.98, 55.13 -40.61 M27.58 -31.2 C35.01 -34.01, 43.45 -36.5, 56.35 -39.82" stroke="#e67700" stroke-width="1" fill="none"></path></g></g><g stroke-linecap="round"><g transform="translate(964 147) rotate(0 -20.215628838539146 -30.12824640981853)"><path d="M-0.31 -0.26 C-7.07 -10.38, -34.46 -50.12, -41.14 -59.99 M1.74 -1.45 C-5.15 -11.42, -35.06 -48.42, -42.17 -58.45" stroke="#e67700" stroke-width="1" fill="none"></path></g><g transform="translate(964 147) rotate(0 -20.215628838539146 -30.12824640981853)"><path d="M-17.36 -42.48 C-23.38 -45.44, -28.99 -49.07, -41.47 -56.81 M-16.09 -41.53 C-25.13 -48.42, -34.23 -53.17, -41.62 -58.66" stroke="#e67700" stroke-width="1" fill="none"></path></g><g transform="translate(964 147) rotate(0 -20.215628838539146 -30.12824640981853)"><path d="M-33.68 -30.05 C-35.65 -36.1, -37.14 -42.87, -41.47 -56.81 M-32.41 -29.09 C-35.51 -40.36, -38.72 -49.59, -41.62 -58.66" stroke="#e67700" stroke-width="1" fill="none"></path></g></g><g stroke-linecap="round"><g transform="translate(1390 267) rotate(0 53.66479992087932 -1.9744936205898398)"><path d="M0.16 0.34 C18.08 -0.21, 90.57 -2.05, 108.55 -2.55 M-1.22 -0.53 C16.41 -1.49, 88.76 -3.6, 107.36 -4.29" stroke="#e67700" stroke-width="1" fill="none"></path></g><g transform="translate(1390 267) rotate(0 53.66479992087932 -1.9744936205898398)"><path d="M80.09 6.14 C91.41 0.89, 101.99 -1.54, 108.01 -4.83 M79.16 7.08 C90.53 2.91, 99.67 -1.8, 107.69 -4.05" stroke="#e67700" stroke-width="1" fill="none"></path></g><g transform="translate(1390 267) rotate(0 53.66479992087932 -1.9744936205898398)"><path d="M79.42 -14.37 C91.13 -11.69, 101.96 -6.2, 108.01 -4.83 M78.48 -13.43 C90.25 -9.78, 99.65 -6.68, 107.69 -4.05" stroke="#e67700" stroke-width="1" fill="none"></path></g></g><g stroke-linecap="round"><g transform="translate(1397 430) rotate(0 60.23564554363486 -1.445818920061015)"><path d="M0.39 0.29 C20.43 -0.16, 99.19 -2.92, 119.1 -3.18 M-0.87 -0.6 C19.66 -0.91, 101.36 -1.83, 121.34 -2.27" stroke="#e67700" stroke-width="1" fill="none"></path></g><g transform="translate(1397 430) rotate(0 60.23564554363486 -1.445818920061015)"><path d="M93.8 6.94 C97.03 5.94, 105.85 4.01, 122.08 -1.18 M93.81 8.95 C103.79 5.21, 112.16 1.08, 122.02 -1.99" stroke="#e67700" stroke-width="1" fill="none"></path></g><g transform="translate(1397 430) rotate(0 60.23564554363486 -1.445818920061015)"><path d="M93.47 -13.58 C96.69 -10.44, 105.58 -8.24, 122.08 -1.18 M93.48 -11.57 C103.6 -8.29, 112.09 -5.39, 122.02 -1.99" stroke="#e67700" stroke-width="1" fill="none"></path></g></g><g transform="translate(177 628) rotate(0 60 12.5)"><text x="0" y="18" font-family="Virgil, Segoe UI Emoji" font-size="20px" fill="#e67700" text-anchor="start" style="white-space: pre;" direction="ltr">EV_MOVING</text></g><g transform="translate(327 352) rotate(0 53 12.5)"><text x="0" y="18" font-family="Virgil, Segoe UI Emoji" font-size="20px" fill="#e67700" text-anchor="start" style="white-space: pre;" direction="ltr">EV_READY</text></g><g transform="translate(707 409) rotate(0 64 12.5)"><text x="0" y="18" font-family="Virgil, Segoe UI Emoji" font-size="20px" fill="#e67700" text-anchor="start" style="white-space: pre;" direction="ltr">EV_LIFTOFF</text></g><g transform="translate(1008 353) rotate(0 55.5 12.5)"><text x="0" y="18" font-family="Virgil, Segoe UI Emoji" font-size="20px" fill="#e67700" text-anchor="start" style="white-space: pre;" direction="ltr">EV_MAX_Q</text></g><g transform="translate(795 55) rotate(0 62 12.5)"><text x="0" y="18" font-family="Virgil, Segoe UI Emoji" font-size="20px" fill="#e67700" text-anchor="start" style="white-space: pre;" direction="ltr">EV_APOGEE</text></g><g transform="translate(1510 250.5) rotate(0 46.5 12.5)"><text x="0" y="18" font-family="Virgil, Segoe UI Emoji" font-size="20px" fill="#e67700" text-anchor="start" style="white-space: pre;" direction="ltr">EV_MAIN</text></g><g transform="translate(1526 414) rotate(0 83.5 12.5)"><text x="0" y="18" font-family="Virgil, Segoe UI Emoji" font-size="20px" fill="#e67700" text-anchor="start" style="white-space: pre;" direction="ltr">EV_TOUCHDOWN</text></g><g transform="translate(190 435) rotate(0 5.5 12.5)"><text x="0" y="18" font-family="Virgil, Segoe UI Emoji" font-size="20px" fill="#000000" text-anchor="start" style="white-space: pre;" direction="ltr">1.</text></g><g transform="translate(408.5 512.5) rotate(0 10 12.5)"><text x="0" y="18" font-family="Virgil, Segoe UI Emoji" font-size="20px" fill="#000000" text-anchor="start" style="white-space: pre;" direction="ltr">2.</text></g><g transform="translate(611 478.5) rotate(0 9.5 12.5)"><text x="0" y="18" font-family="Virgil, Segoe UI Emoji" font-size="20px" fill="#000000" text-anchor="start" style="white-space: pre;" direction="ltr">3.</text></g><g transform="translate(886 429.5) rotate(0 9 12.5)"><text x="0" y="18" font-family="Virgil, Segoe UI Emoji" font-size="20px" fill="#000000" text-anchor="start" style="white-space: pre;" direction="ltr">4.</text></g><g transform="translate(885 211.5) rotate(0 9 12.5)"><text x="0" y="18" font-family="Virgil, Segoe UI Emoji" font-size="20px" fill="#000000" text-anchor="start" style="white-space: pre;" direction="ltr">5.</text></g><g transform="translate(1242 21.5) rotate(0 9 12.5)"><text x="0" y="18" font-family="Virgil, Segoe UI Emoji" font-size="20px" fill="#000000" text-anchor="start" style="white-space: pre;" direction="ltr">6.</text></g><g transform="translate(1330 254.5) rotate(0 8 12.5)"><text x="0" y="18" font-family="Virgil, Segoe UI Emoji" font-size="20px" fill="#000000" text-anchor="start" style="white-space: pre;" direction="ltr">7.</text></g><g transform="translate(1335 420.5) rotate(0 10.5 12.5)"><text x="0" y="18" font-family="Virgil, Segoe UI Emoji" font-size="20px" fill="#000000" text-anchor="start" style="white-space: pre;" direction="ltr">8.</text></g></svg>