<svg version="1.1" xmlns="http://www.w3.org/2000/svg" viewBox="0 0 1977.5 381.5" width="1977.5" height="381.5">
  <!-- svg-source:excalidraw -->
  
  <defs>
    <style>
      @font-face {
        font-family: "Virgil";
        src: url("https://excalidraw.com/Virgil.woff2");
      }
      @font-face {
        font-family: "Cascadia";
        src: url("https://excalidraw.com/Cascadia.woff2");
      }
    </style>
  </defs>
  <g stroke-linecap="round" transform="translate(10 248.5) rotate(0 115.5 61.5)"><path d="M0.54 1.47 C56.92 0.49, 110.92 0.37, 230.27 -0.98 M-0.08 -0.01 C84.84 0.31, 170.33 1.15, 231.46 0.1 M229.5 0.21 C229.21 33.63, 230.17 69.88, 230.58 124.06 M231.9 0.52 C230.38 27.86, 232.08 56.87, 230.81 122.4 M229.65 123.36 C184.78 123.94, 138.12 121.36, -0.15 124.7 M230.58 122.22 C159.59 124.98, 87.36 124.68, -0.6 122.28 M1.11 121.25 C0.78 88.59, -1.03 55.63, -1.33 0.42 M0.26 122.44 C-1.58 78.17, -0.25 32.41, -0.4 -0.11" stroke="#000000" stroke-width="1" fill="none"></path></g><g transform="translate(59 285.5) rotate(0 74 25)"><text x="0" y="18" font-family="Virgil, Segoe UI Emoji" font-size="20px" fill="#000000" text-anchor="start" style="white-space: pre;" direction="ltr">get raw sensor</text><text x="0" y="43" font-family="Virgil, Segoe UI Emoji" font-size="20px" fill="#000000" text-anchor="start" style="white-space: pre;" direction="ltr"> values</text></g><g stroke-linecap="round" transform="translate(365.5 246) rotate(0 115.5 61.5)"><path d="M-1.47 -0.49 C73.52 2.12, 146.96 0.74, 229.61 -1.45 M-0.2 -0.22 C92.14 0.75, 185.13 1.07, 231.29 0.23 M232.4 -1.65 C231.37 41.27, 232.09 82.55, 232.95 123.46 M231.08 0.5 C231.12 37.75, 231.34 75.31, 230.32 123.12 M230.82 121.66 C140.75 121.97, 50.04 121.05, 0.33 124.29 M231.72 122.48 C180.04 124.46, 130.38 124.64, 0.44 122.22 M1.65 122.75 C1.88 94.39, 0.68 67.33, 0.86 -1.81 M-0.08 123.61 C1.06 74.22, 0.77 26.28, -0.03 0.17" stroke="#000000" stroke-width="1" fill="none"></path></g><g transform="translate(403.5 282.5) rotate(0 77.5 25)"><text x="77.5" y="18" font-family="Virgil, Segoe UI Emoji" font-size="20px" fill="#000000" text-anchor="middle" style="white-space: pre;" direction="ltr">Eliminate faulty</text><text x="77.5" y="43" font-family="Virgil, Segoe UI Emoji" font-size="20px" fill="#000000" text-anchor="middle" style="white-space: pre;" direction="ltr">Sensors</text></g><g stroke-linecap="round" transform="translate(688.5 244) rotate(0 115.5 61.5)"><path d="M1 -1.41 C64.96 -0.03, 127.74 -0.4, 232.45 -1.2 M0.33 -0.17 C66.27 0.57, 131.14 0.01, 231.04 0.13 M229.44 0.24 C231.38 33.9, 231.35 68.29, 231.18 123.01 M231.32 -0.86 C230.39 47.64, 231.68 95.42, 231.72 122.54 M231.17 121.52 C158.88 122.16, 89.58 121.64, 0.4 122.89 M230.45 122.59 C181.12 123.53, 131.67 123.84, 0.51 123.81 M-0.12 124.11 C1.51 88.32, -1.08 54.73, -0.88 1.36 M-0.8 122.89 C-1.23 78.22, -1.6 34.28, 0.55 0.19" stroke="#000000" stroke-width="1" fill="none"></path></g><g transform="translate(701.5 280.5) rotate(0 102.5 25)"><text x="102.5" y="18" font-family="Virgil, Segoe UI Emoji" font-size="20px" fill="#000000" text-anchor="middle" style="white-space: pre;" direction="ltr">Average Sensors and</text><text x="102.5" y="43" font-family="Virgil, Segoe UI Emoji" font-size="20px" fill="#000000" text-anchor="middle" style="white-space: pre;" direction="ltr">Convert to SI units</text></g><g stroke-linecap="round" transform="translate(1045.5 10) rotate(0 115.5 61.5)"><path d="M-0.1 0.21 C49.9 1.19, 102.22 1.33, 229.31 1.38 M0.24 -0.42 C91.76 -0.47, 183.6 -0.5, 230.62 -0.07 M231.73 -1.27 C231.33 26.75, 232.3 50.25, 231.92 121.85 M231.35 0.06 C232.26 39.75, 232.28 77.85, 231.09 123.25 M231.75 122.27 C141.75 122.09, 53 123.11, 0.34 124.42 M230.8 123.77 C146.09 124.74, 61.09 124.81, -0.49 123.54 M0.61 124.39 C-2.08 88.67, -0.01 51.01, -0.87 -1.85 M0.24 123.74 C-0.53 77.88, -1.1 32.71, 0.22 0.27" stroke="#000000" stroke-width="1" fill="none"></path></g><g transform="translate(1059.5 59) rotate(0 101.5 12.5)"><text x="101.5" y="18" font-family="Virgil, Segoe UI Emoji" font-size="20px" fill="#000000" text-anchor="middle" style="white-space: pre;" direction="ltr">Calibrate z direction</text></g><g stroke-linecap="round" transform="translate(1394.5 241) rotate(0 115.5 61.5)"><path d="M0.19 -1.51 C74.86 -0.82, 151.35 -1.75, 231.9 1.12 M0.31 0.52 C50.14 -0.09, 99.22 0.24, 231.44 -0.72 M230.05 1.92 C230.94 36.51, 231 70.5, 231.78 122.72 M231.44 0.59 C231.71 39.34, 231.22 80.09, 230.67 122.16 M230.41 122.1 C174.37 122.23, 115.73 121.89, 0.58 123.98 M230.4 123.32 C179.82 121.55, 129.13 122.77, 0.8 122.25 M-1.69 124.55 C-0.66 88.97, -0.65 54.66, -1.18 1.08 M0.26 122.71 C0.5 96.82, -0.05 70.86, 0.85 0.85" stroke="#000000" stroke-width="1" fill="none"></path></g><g transform="translate(1428 290) rotate(0 82 12.5)"><text x="82" y="18" font-family="Virgil, Segoe UI Emoji" font-size="20px" fill="#000000" text-anchor="middle" style="white-space: pre;" direction="ltr">Transform Data</text></g><g stroke-linecap="round" transform="translate(1736.5 243) rotate(0 115.5 61.5)"><path d="M1.09 -1.65 C57.66 0.69, 117.6 0.45, 232.61 -1.58 M-0.51 0.31 C75.7 0.49, 151.19 0.6, 231.76 0.31 M231.42 -0.61 C231.76 37.44, 230.91 73.31, 231.85 123.29 M230.59 -0.87 C230.48 31.99, 232.2 62.09, 231.46 122.14 M230.66 121.56 C176.77 122.89, 122.61 122.59, -0.54 122.33 M231.1 122.61 C158.67 124.24, 87.28 125.74, 0.27 122.95 M-0.01 124.57 C-1.16 77.95, 0 31.29, -1.52 0.3 M0.9 123.23 C1.42 91.22, 0.24 57.74, 0.58 0.67" stroke="#000000" stroke-width="1" fill="none"></path></g><g transform="translate(1757 292) rotate(0 95 12.5)"><text x="95" y="18" font-family="Virgil, Segoe UI Emoji" font-size="20px" fill="#000000" text-anchor="middle" style="white-space: pre;" direction="ltr">Median Filter Data</text></g><g stroke-linecap="round"><g transform="translate(259 307.5) rotate(0 44.52908472718667 -1.4390456546097994)"><path d="M-0.05 0.25 C14.67 -0.33, 73.33 -2.53, 88.27 -3.13 M-1.54 -0.67 C13.58 -1.07, 75.49 -1.41, 90.6 -1.66" stroke="#000000" stroke-width="1" fill="none"></path></g><g transform="translate(259 307.5) rotate(0 44.52908472718667 -1.4390456546097994)"><path d="M62.93 7.68 C70.53 6.78, 78.45 3.85, 89.4 -3.48 M61.6 9.84 C68.38 7.13, 76.25 3.76, 90.43 -2.42" stroke="#000000" stroke-width="1" fill="none"></path></g><g transform="translate(259 307.5) rotate(0 44.52908472718667 -1.4390456546097994)"><path d="M62.72 -12.84 C70.43 -7.71, 78.42 -4.62, 89.4 -3.48 M61.39 -10.68 C68.15 -8.66, 76.07 -7.31, 90.43 -2.42" stroke="#000000" stroke-width="1" fill="none"></path></g></g><g stroke-linecap="round"><g transform="translate(608 304.5) rotate(0 32.913871610723504 -1.2725102018565053)"><path d="M1.07 -0.03 C11.83 -0.6, 55.08 -2.03, 65.65 -2.51 M0.18 -1.09 C10.73 -1.59, 54.5 -1.08, 65.04 -1.25" stroke="#000000" stroke-width="1" fill="none"></path></g><g transform="translate(608 304.5) rotate(0 32.913871610723504 -1.2725102018565053)"><path d="M36.81 10.12 C47.01 3.86, 57.44 0.45, 63.71 -1 M37.1 9.07 C44.17 5.35, 53.01 2.85, 65.68 -0.89" stroke="#000000" stroke-width="1" fill="none"></path></g><g transform="translate(608 304.5) rotate(0 32.913871610723504 -1.2725102018565053)"><path d="M36.79 -10.41 C47.15 -8.59, 57.59 -3.93, 63.71 -1 M37.09 -11.45 C43.97 -9.28, 52.82 -5.87, 65.68 -0.89" stroke="#000000" stroke-width="1" fill="none"></path></g></g><g stroke-linecap="round"><g transform="translate(938 303.5) rotate(0 45.786206190660664 -115.74097062237558)"><path d="M1.16 -0.98 C16.4 -39.22, 75.77 -192.22, 90.41 -230.5" stroke="#000000" stroke-width="1.5" fill="none" stroke-dasharray="1.5 7"></path></g><g transform="translate(938 303.5) rotate(0 45.786206190660664 -115.74097062237558)"><path d="M88.19 -199.82 C91.06 -208.56, 90.88 -212.23, 91.15 -231.09" stroke="#000000" stroke-width="1.5" fill="none" stroke-dasharray="1.5 5"></path></g><g transform="translate(938 303.5) rotate(0 45.786206190660664 -115.74097062237558)"><path d="M69.05 -207.21 C75.93 -214.56, 79.83 -216.65, 91.15 -231.09" stroke="#000000" stroke-width="1.5" fill="none" stroke-dasharray="1.5 5"></path></g></g><g stroke-linecap="round"><g transform="translate(937 319.5) rotate(0 215.64282144498088 -3.0073680114001036)"><path d="M0.36 0.24 C72.31 -0.94, 360.37 -5.14, 432.19 -6.26 M-0.91 -0.67 C70.94 -1.74, 359.94 -4.07, 431.87 -4.86" stroke="#000000" stroke-width="1" fill="none"></path></g><g transform="translate(937 319.5) rotate(0 215.64282144498088 -3.0073680114001036)"><path d="M404.19 7.66 C412.94 2.43, 422.25 -3.27, 433.46 -4.94 M403.48 5.04 C411.27 3.22, 416.84 0.37, 431.61 -4.01" stroke="#000000" stroke-width="1" fill="none"></path></g><g transform="translate(937 319.5) rotate(0 215.64282144498088 -3.0073680114001036)"><path d="M403.99 -12.86 C412.95 -11.03, 422.33 -9.68, 433.46 -4.94 M403.28 -15.48 C411.12 -12.33, 416.74 -10.22, 431.61 -4.01" stroke="#000000" stroke-width="1" fill="none"></path></g></g><g stroke-linecap="round"><g transform="translate(1287 76.5) rotate(0 42.78791094925259 93.97311973273753)"><path d="M-0.42 0.25 C13.38 31.48, 69.68 156.05, 83.88 187.39 M1.56 -0.66 C15.63 30.72, 72.28 156.87, 86 188.61" stroke="#000000" stroke-width="1" fill="none"></path></g><g transform="translate(1287 76.5) rotate(0 42.78791094925259 93.97311973273753)"><path d="M65.64 165.09 C72.23 175, 81.78 185.45, 86.98 188.49 M66.19 167.64 C73.46 174.97, 80.04 182.89, 86.38 188.34" stroke="#000000" stroke-width="1" fill="none"></path></g><g transform="translate(1287 76.5) rotate(0 42.78791094925259 93.97311973273753)"><path d="M84.41 156.8 C83.75 169.85, 86.04 183.5, 86.98 188.49 M84.96 159.35 C84.95 169.97, 84.32 181.08, 86.38 188.34" stroke="#000000" stroke-width="1" fill="none"></path></g></g><g stroke-linecap="round"><g transform="translate(1640 308.5) rotate(0 41.620542017482194 0.2957431057467943)"><path d="M1.2 0.56 C15.14 0.78, 69.45 1.1, 82.87 1.07 M0.37 -0.19 C14.29 -0.26, 68.98 -0.22, 82.38 -0.48" stroke="#000000" stroke-width="1" fill="none"></path></g><g transform="translate(1640 308.5) rotate(0 41.620542017482194 0.2957431057467943)"><path d="M55.21 11.45 C62.75 6.77, 68.28 6.51, 83.14 1.19 M54.57 10.01 C62.4 7.44, 70.7 3.63, 83.1 -0.13" stroke="#000000" stroke-width="1" fill="none"></path></g><g transform="translate(1640 308.5) rotate(0 41.620542017482194 0.2957431057467943)"><path d="M55.05 -9.07 C62.58 -8.89, 68.15 -4.29, 83.14 1.19 M54.41 -10.51 C62.26 -6.9, 70.62 -4.54, 83.1 -0.13" stroke="#000000" stroke-width="1" fill="none"></path></g></g></svg>