<svg version="1.1" xmlns="http://www.w3.org/2000/svg" viewBox="0 0 1939.5 1181" width="1939.5" height="1181">
  <!-- svg-source:excalidraw -->
  
  <defs>
    <style>
      @font-face {
        font-family: "Virgil";
        src: url("https://excalidraw.com/Virgil.woff2");
      }
      @font-face {
        font-family: "Cascadia";
        src: url("https://excalidraw.com/Cascadia.woff2");
      }
    </style>
  </defs>
  <rect x="0" y="0" width="1939.5" height="1181" fill="#ffffff"></rect><g stroke-linecap="round" transform="translate(397 357) rotate(0 68.5 49)"><path d="M-0.41 0.54 C28.06 2.26, 55.17 1.14, 136.86 -1.61 M-0.16 0.43 C47.45 -0.92, 95.19 -0.45, 137.61 0.13 M136.89 -0.04 C136.98 26.92, 134.8 54.32, 138.52 96.66 M137.87 -0.73 C137.45 19.65, 137.92 40.04, 136.14 98.34 M136.48 99.44 C101.93 98.75, 69.46 99.55, 0.79 99.83 M137.43 97.37 C89.69 99.39, 43.08 99.63, 0.63 97.98 M0.97 99.26 C-0.31 72.64, -2.27 48.96, -0.45 1.4 M-0.68 97.47 C0.01 75.88, 0.64 53.57, -0.55 0.72" stroke="#000000" stroke-width="1" fill="none"></path></g><g transform="translate(404.5 393.5) rotate(0 61 12.5)"><text x="61" y="18" font-family="Virgil, Segoe UI Emoji" font-size="20px" fill="#000000" text-anchor="middle" style="white-space: pre;" direction="ltr">Sensor Read</text></g><g stroke-linecap="round" transform="translate(650.5 356) rotate(0 68.5 49)"><path d="M0.45 -1.19 C27.35 -0.8, 54.51 -1.89, 136.04 0.23 M-0.68 -0.75 C52.55 -1.88, 104.04 -0.49, 137.99 -0.43 M138.53 -0.65 C135.75 23.56, 138.59 46.95, 137.51 98.41 M136.66 0.1 C137.79 36.65, 136.9 72.93, 136.84 98.14 M137.73 97.66 C93.84 95.39, 49.67 95.75, 1.87 99.21 M137.1 98.07 C88.1 97.79, 39.82 98.96, 0.13 97.38 M-0.32 96.37 C-1.53 59.22, -1.49 23.04, -1.59 1.59 M0.1 97.96 C0.7 64.41, 0.44 29.48, -0.92 0.59" stroke="#000000" stroke-width="1" fill="none"></path></g><g transform="translate(656 380) rotate(0 64.5 12.5)"><text x="0" y="18" font-family="Virgil, Segoe UI Emoji" font-size="20px" fill="#000000" text-anchor="start" style="white-space: pre;" direction="ltr">Preprocessing</text></g><g stroke-linecap="round" transform="translate(904.5 499) rotate(0 68.5 49)"><path d="M-1.73 1.64 C52.67 0.21, 102.78 -2.76, 138.21 0.51 M0.04 -0.78 C43.76 -0.02, 86.09 0.17, 137.66 0.62 M135.91 -0.56 C138.69 37.78, 136.67 71.56, 136.73 97.63 M136.48 -0.55 C136.75 29.75, 137.02 58.46, 137.7 97.03 M135.42 98.56 C93.01 98.49, 53.72 97.44, -1.64 96.95 M137.67 98.14 C105.3 98.01, 72.53 98.2, -0.67 98.18 M-0.86 96.41 C0.07 64.02, 1.38 25.91, 0.09 1.22 M-0.06 97.45 C0.86 59.86, 0.5 20.55, -0.85 0.24" stroke="#000000" stroke-width="1" fill="none"></path></g><g transform="translate(953.5 535.5) rotate(0 19.5 12.5)"><text x="19.5" y="18" font-family="Virgil, Segoe UI Emoji" font-size="20px" fill="#000000" text-anchor="middle" style="white-space: pre;" direction="ltr">FSM</text></g><g stroke-linecap="round" transform="translate(902.5 239) rotate(0 68.5 49)"><path d="M-0.12 -1.11 C54.59 2.83, 108.27 2.05, 135.3 0.48 M-1 -0.48 C31.81 -0.18, 64.91 -0.27, 136.84 -0.2 M136.6 -1.98 C136.7 21.25, 136.18 40.17, 138.68 96.87 M137.12 -0.79 C137.34 25.71, 138.29 51.31, 136.68 98.53 M138.14 99.6 C90.52 98.43, 46.14 94.99, -0.43 97.88 M136.52 98.89 C92.66 96.29, 47.61 97.52, -0.73 97.78 M-1.95 99.9 C-0.6 58.02, 1.85 20.6, -0.5 1.34 M0.61 98.46 C-0.1 61.96, -0.75 28.29, 0.71 -0.24" stroke="#000000" stroke-width="1" fill="none"></path></g><g transform="translate(920 263) rotate(0 51 25)"><text x="51" y="18" font-family="Virgil, Segoe UI Emoji" font-size="20px" fill="#000000" text-anchor="middle" style="white-space: pre;" direction="ltr">State</text><text x="51" y="43" font-family="Virgil, Segoe UI Emoji" font-size="20px" fill="#000000" text-anchor="middle" style="white-space: pre;" direction="ltr">Estimation</text></g><g stroke-linecap="round" transform="translate(400 124) rotate(0 69 49)"><path d="M1.6 -2 C46.06 -2.68, 87.12 -1.21, 137.88 0.59 M0.89 0.81 C27.98 1.56, 57.74 -0.07, 137.78 0.93 M139.9 -0.81 C135.95 28.97, 137.02 54.14, 139.34 99.16 M138.46 0.63 C136.2 36.74, 137.59 74.21, 137.76 98.7 M139.22 96.19 C110.52 98.12, 80.28 97.18, -1.67 97.44 M138.76 97.16 C104.06 97.97, 69.89 96.68, 0.48 97.88 M-0.41 99.77 C0.5 75.81, -1.84 56.58, 0.82 -0.76 M0.23 97.69 C1.49 69.92, 1.56 42.55, -0.51 0.45" stroke="#000000" stroke-width="1" fill="none"></path></g><g transform="translate(448 162.5) rotate(0 18 12.5)"><text x="18" y="18" font-family="Virgil, Segoe UI Emoji" font-size="20px" fill="#000000" text-anchor="middle" style="white-space: pre;" direction="ltr">Init</text></g><g stroke-linecap="round" transform="translate(394.5 506) rotate(0 68.5 49)"><path d="M1.45 -1.75 C40.3 -0.1, 76.9 1.24, 138.97 0.81 M0.54 -0.73 C33.3 -0.79, 68.23 -0.86, 136.28 0.96 M136.66 0.36 C138.4 28.2, 136.49 57.62, 136.2 97.98 M136.42 -0.41 C138.39 32.71, 138.24 67.3, 136.5 98.88 M136.94 96.51 C90.93 99.37, 42.49 97.96, 0.95 99.32 M136.13 98.87 C90.14 99.12, 42.94 99.75, 0.34 98.37 M-0.83 96.63 C0.64 61.1, 1.89 27.41, 0.73 0.65 M0.51 98.36 C0.11 73.2, 0.85 51.1, 0.5 0.3" stroke="#000000" stroke-width="1" fill="none"></path></g><g transform="translate(427.5 530) rotate(0 35.5 25)"><text x="35.5" y="18" font-family="Virgil, Segoe UI Emoji" font-size="20px" fill="#000000" text-anchor="middle" style="white-space: pre;" direction="ltr">Health</text><text x="35.5" y="43" font-family="Virgil, Segoe UI Emoji" font-size="20px" fill="#000000" text-anchor="middle" style="white-space: pre;" direction="ltr">Monitor</text></g><g stroke-linecap="round" transform="translate(902.5 701) rotate(0 68.5 49)"><path d="M0.72 -1.42 C31.31 -1.59, 63.59 -0.65, 136.83 0.14 M0.14 -0.03 C31.63 -0.49, 62.28 -0.21, 137.23 -0.96 M138.27 1.93 C138.66 25.08, 138.13 50.93, 138.84 96.32 M137.18 0.87 C135.71 37.28, 136.83 73.89, 137.18 97.34 M137 96.13 C95.74 98.49, 52.01 96.67, -1.39 98.46 M137.49 98.55 C96.04 98.38, 56.76 98.74, -0.68 97.33 M0.64 98.4 C0.85 75.98, -0.18 56.26, -0.24 0.44 M-0.82 98.92 C0.54 70.4, 0.43 41.43, 0.97 -0.82" stroke="#000000" stroke-width="1" fill="none"></path></g><g transform="translate(918 737.5) rotate(0 53 12.5)"><text x="53" y="18" font-family="Virgil, Segoe UI Emoji" font-size="20px" fill="#000000" text-anchor="middle" style="white-space: pre;" direction="ltr">Peripherals</text></g><g stroke-linecap="round" transform="translate(1371.5 371) rotate(0 68.5 49)"><path d="M1.48 -1.21 C34.63 1.52, 72.41 -0.24, 138.26 0.86 M0.15 0.86 C49.07 0.91, 97.4 1.84, 137.31 0.62 M136.92 1.7 C137.84 24.5, 137.43 46.25, 135.67 99.76 M136.2 0.45 C136.48 26.77, 136.53 53.55, 136.75 98.13 M136.76 98.56 C88.01 96.66, 38.88 99.94, 1.28 99.42 M137.39 97.7 C96.75 97.68, 57.93 97.37, -0.14 98.89 M1.31 96.66 C-0.64 70.08, -0.59 40.99, 0.85 -0.82 M-0.6 97.35 C0.76 60.55, -0.69 23.83, 0.28 0.69" stroke="#c92a2a" stroke-width="1" fill="none"></path></g><g transform="translate(1397.5 407.5) rotate(0 42.5 12.5)"><text x="42.5" y="18" font-family="Virgil, Segoe UI Emoji" font-size="20px" fill="#c92a2a" text-anchor="middle" style="white-space: pre;" direction="ltr">Recorder</text></g><g stroke-linecap="round" transform="translate(1505.5 743) rotate(0 68.5 49)"><path d="M0.31 0.64 C32.32 0.68, 63.33 -0.35, 138.3 -0.24 M0.5 -0.82 C45.04 0.43, 88.88 0.32, 136.9 0.97 M135.85 1.59 C137.93 22.38, 137.11 44.59, 136.82 99.39 M137.02 0.31 C137.69 28.89, 138.07 57.29, 137.78 98.03 M138.58 97.27 C106.46 97.09, 79.13 98.48, -0.04 97.45 M136.33 97.75 C96.31 98.52, 56.38 96.94, 0.72 97.76 M-0.49 99.4 C-1 66.05, -1.57 36.59, -0.61 0.98 M0.93 97.99 C0.14 74.86, -0.86 50.62, -0.54 -0.32" stroke="#000000" stroke-width="1" fill="none"></path></g><g transform="translate(1509.5 767) rotate(0 64.5 25)"><text x="64.5" y="18" font-family="Virgil, Segoe UI Emoji" font-size="20px" fill="#000000" text-anchor="middle" style="white-space: pre;" direction="ltr">USB</text><text x="64.5" y="43" font-family="Virgil, Segoe UI Emoji" font-size="20px" fill="#000000" text-anchor="middle" style="white-space: pre;" direction="ltr">Communicator</text></g><g stroke-linecap="round" transform="translate(1246.5 744) rotate(0 68.5 49)"><path d="M1.86 -1.26 C49.84 2.12, 96.52 -0.92, 136.89 -0.41 M-0.02 0.22 C36.96 0.54, 73.73 1.76, 136.04 0.13 M137.54 0.69 C138.24 26.09, 138.65 53.35, 137.41 97.24 M137.37 0.71 C136.22 30.82, 135.86 61.35, 137.5 98.43 M137.71 99 C98.3 97.59, 62.2 99.84, -1.42 97.49 M137.03 97.64 C93.21 98.99, 49.36 98.91, 0.64 98.76 M1.7 98.48 C1.31 75.15, 0.59 52.53, 1.48 1.9 M0.29 98.61 C1.18 69.15, -0.59 41.46, 0.08 -0.11" stroke="#1864ab" stroke-width="1" fill="none"></path></g><g transform="translate(1275 780.5) rotate(0 40 12.5)"><text x="40" y="18" font-family="Virgil, Segoe UI Emoji" font-size="20px" fill="#1864ab" text-anchor="middle" style="white-space: pre;" direction="ltr">Settings</text></g><g stroke-linecap="round" transform="translate(250 10) rotate(0 732.5 462.5)"><path d="M0.51 0.61 C472.59 -0.56, 945.43 -0.19, 1465.19 0.68 M0.3 0.38 C481.89 -4.24, 963.48 -3.96, 1465.24 0.32 M1465.06 -0.09 C1461.6 242.11, 1461.57 483.98, 1465.66 924.63 M1465.32 -0.21 C1467.25 290.64, 1467.62 581.55, 1465.32 924.89 M1465.45 925.1 C1046.74 928.27, 628.37 927.5, -0.63 924.9 M1464.62 925.34 C981.14 929.52, 497.94 929.61, 0.25 925.38 M-0.18 924.9 C3.75 696.79, 3 467.66, -0.07 0.36 M0.02 925.3 C1.18 641.37, 0.95 358.56, 0.18 0.25" stroke="#000000" stroke-width="1" fill="none"></path></g><g transform="translate(932 15) rotate(0 86 22.5)"><text x="0" y="32" font-family="Virgil, Segoe UI Emoji" font-size="36px" fill="#000000" text-anchor="start" style="white-space: pre;" direction="ltr">Processor</text></g><g stroke-linecap="round" transform="translate(10 362) rotate(0 87.5 98)"><path d="M1.77 1.11 C68.01 -0.5, 134.51 1.05, 176.25 0.08 M-0.21 -0.23 C68 -2.14, 133.79 -2.33, 174.31 0.3 M173.34 1.39 C175.53 40.79, 172.07 86.94, 175.23 196.75 M175.88 -0.72 C173.81 68.07, 175.56 135.34, 175.82 195 M175.52 195.36 C114.08 194.27, 53.89 195.44, 0.28 196.71 M175.89 196.52 C110.02 194.77, 44.25 195.71, 0.65 196.2 M-0.72 197.24 C-2.47 154.16, 0.68 110.26, 1.38 1.15 M-0.73 196.34 C1.23 154.18, 0.77 112.26, -0.69 0.94" stroke="#000000" stroke-width="1" fill="none"></path></g><g transform="translate(16 369) rotate(0 80.5 45)"><text x="80.5" y="32" font-family="Virgil, Segoe UI Emoji" font-size="36px" fill="#000000" text-anchor="middle" style="white-space: pre;" direction="ltr">Board</text><text x="80.5" y="77" font-family="Virgil, Segoe UI Emoji" font-size="36px" fill="#000000" text-anchor="middle" style="white-space: pre;" direction="ltr">Hardware</text></g><g stroke-linecap="round" transform="translate(1754.5 689) rotate(0 87.5 98)"><path d="M0.49 -1.51 C53.28 0.41, 105.12 1.16, 173.74 -0.98 M-0.19 -0.42 C40.19 0.76, 80.41 0.99, 175.04 -0.91 M174.27 1.95 C174.98 47.55, 174.78 91.77, 174.12 196.57 M174.62 -0.47 C176.09 46.78, 177.25 92.87, 175.98 195.24 M175.33 196.37 C139.43 196.15, 100.1 197.42, -0.76 195.61 M175.8 196.09 C113.06 195.35, 50.4 195.64, -0.42 196.17 M1.7 197.7 C-1.64 150.11, -1.54 104.4, 0.33 0.42 M0.26 196.63 C-0.46 142.31, 0.57 90.96, 0.79 0.17" stroke="#000000" stroke-width="1" fill="none"></path></g><g transform="translate(1766 696) rotate(0 80 45)"><text x="80" y="32" font-family="Virgil, Segoe UI Emoji" font-size="36px" fill="#000000" text-anchor="middle" style="white-space: pre;" direction="ltr">User</text><text x="80" y="77" font-family="Virgil, Segoe UI Emoji" font-size="36px" fill="#000000" text-anchor="middle" style="white-space: pre;" direction="ltr">Computer</text></g><g stroke-linecap="round" transform="translate(861.5 975) rotate(0 116.5 98)"><path d="M0.46 -1.29 C88.14 2.42, 178.67 1.07, 234.6 0.18 M-0.62 -0.72 C92.67 -0.82, 185.46 -1.37, 233.32 0.57 M232.98 1.34 C233.74 44.41, 233.28 93.03, 234.24 194.47 M233.57 0.62 C230.97 45.41, 230.93 92.03, 232.74 195.87 M232.61 195.98 C141.99 194.95, 50.8 194.93, 0.84 195.45 M232.4 196.75 C176.92 198.55, 121.84 197.3, -0.2 195.99 M-0.83 197.98 C1.06 150.79, -1.69 102.89, -1.42 -0.02 M0.02 196.71 C1.15 127.99, 1.03 57.68, 0.39 0.19" stroke="#000000" stroke-width="1" fill="none"></path></g><g transform="translate(883.5 989) rotate(0 95.5 22.5)"><text x="95.5" y="32" font-family="Virgil, Segoe UI Emoji" font-size="36px" fill="#000000" text-anchor="middle" style="white-space: pre;" direction="ltr">Peripherals</text></g><g stroke-linecap="round"><g transform="translate(195.49339927852157 408.4440549526322) rotate(0 91.94855696316807 1.1060898133486035)"><path d="M-0.03 0.08 C30.77 0.49, 154.53 1.77, 185.4 2.13 M-1.51 -0.92 C29.16 -0.37, 153.87 2.47, 184.93 3.14" stroke="#000000" stroke-width="1" fill="none"></path></g><g transform="translate(195.49339927852157 408.4440549526322) rotate(0 91.94855696316807 1.1060898133486035)"><path d="M28.41 -8.37 C16.62 -5.17, 6.86 -1.38, -1.94 0.65 M27.39 -10.16 C17.79 -5.93, 7.25 -2.32, 0.3 -0.51" stroke="#000000" stroke-width="1" fill="none"></path></g><g transform="translate(195.49339927852157 408.4440549526322) rotate(0 91.94855696316807 1.1060898133486035)"><path d="M28.18 12.15 C16.53 8.15, 6.85 4.74, -1.94 0.65 M27.17 10.36 C17.72 6.8, 7.27 2.63, 0.3 -0.51" stroke="#000000" stroke-width="1" fill="none"></path></g><g transform="translate(195.49339927852157 408.4440549526322) rotate(0 91.94855696316807 1.1060898133486035)"><path d="M156.65 14.27 C164.83 10.61, 174.97 7.53, 183.02 3.71 M155.64 12.48 C167.63 9.14, 178.62 5.32, 185.26 2.55" stroke="#000000" stroke-width="1" fill="none"></path></g><g transform="translate(195.49339927852157 408.4440549526322) rotate(0 91.94855696316807 1.1060898133486035)"><path d="M157.1 -6.25 C165.06 -2.7, 175.04 1.41, 183.02 3.71 M156.09 -8.04 C167.83 -3.59, 178.66 0.38, 185.26 2.55" stroke="#000000" stroke-width="1" fill="none"></path></g></g><g stroke-linecap="round"><g transform="translate(549 411) rotate(0 43.59800961501895 -1.5175358520913846)"><path d="M-0.75 -0.94 C13.86 -1.68, 73.26 -3.86, 87.95 -4.22 M1.05 1.18 C15.57 0.61, 73.2 -1.78, 87.5 -2.79" stroke="#000000" stroke-width="1" fill="none"></path></g><g transform="translate(549 411) rotate(0 43.59800961501895 -1.5175358520913846)"><path d="M58.33 10.55 C68.43 6.01, 79.25 -0.12, 86.4 -3.19 M60.31 9.27 C69.24 4.94, 76.95 0.68, 87.27 -2.52" stroke="#000000" stroke-width="1" fill="none"></path></g><g transform="translate(549 411) rotate(0 43.59800961501895 -1.5175358520913846)"><path d="M57.23 -9.94 C67.71 -7.86, 78.9 -7.38, 86.4 -3.19 M59.21 -11.22 C68.3 -9, 76.37 -6.71, 87.27 -2.52" stroke="#000000" stroke-width="1" fill="none"></path></g></g><g stroke-linecap="round"><g transform="translate(802 404) rotate(0 43.63612822405992 -58.654496402665956)"><path d="M-0.61 -0.05 C13.85 -19.49, 73.32 -97.64, 87.88 -117.26 M1.28 -1.12 C15.56 -20.32, 73.3 -96.57, 87.39 -115.86" stroke="#000000" stroke-width="1" fill="none"></path></g><g transform="translate(802 404) rotate(0 43.63612822405992 -58.654496402665956)"><path d="M78.69 -85.67 C81.87 -98.85, 84.39 -109.8, 85.85 -115.29 M78.35 -88.08 C81.72 -96.64, 84.34 -105.06, 86.86 -116.85" stroke="#000000" stroke-width="1" fill="none"></path></g><g transform="translate(802 404) rotate(0 43.63612822405992 -58.654496402665956)"><path d="M62.24 -97.93 C71.84 -106.2, 80.84 -112.32, 85.85 -115.29 M61.9 -100.35 C70.58 -105, 78.52 -109.46, 86.86 -116.85" stroke="#000000" stroke-width="1" fill="none"></path></g></g><g stroke-linecap="round"><g transform="translate(803 404) rotate(0 45.34647816505287 66.32764685604718)"><path d="M-0.38 -0.49 C14.34 21.97, 73.94 111.93, 88.93 134.45 M1.62 -1.8 C16.65 20.32, 76.58 110.16, 91.07 132.57" stroke="#000000" stroke-width="1" fill="none"></path></g><g transform="translate(803 404) rotate(0 45.34647816505287 66.32764685604718)"><path d="M66.18 112.88 C76.15 120.27, 84.94 125.35, 90.06 133.52 M67.97 114.81 C75.25 121.92, 83.54 128.24, 90.98 132.11" stroke="#000000" stroke-width="1" fill="none"></path></g><g transform="translate(803 404) rotate(0 45.34647816505287 66.32764685604718)"><path d="M83.31 101.59 C87.25 112.89, 90.02 121.93, 90.06 133.52 M85.11 103.53 C86.19 114.6, 88.29 125, 90.98 132.11" stroke="#000000" stroke-width="1" fill="none"></path></g></g><g stroke-linecap="round"><g transform="translate(1740 793) rotate(0 -40.28597537289386 0.7283192801009477)"><path d="M-0.62 0.7 C-14.4 0.6, -68.63 0.03, -81.83 -0.03 M1.26 0.02 C-12.21 0.08, -66.02 1.19, -79.55 1.49" stroke="#000000" stroke-width="1" fill="none"></path></g><g transform="translate(1740 793) rotate(0 -40.28597537289386 0.7283192801009477)"><path d="M-27.74 9.31 C-18.55 9.12, -7.51 3.06, 1.35 1.79 M-29.26 9.93 C-22.78 8.13, -16.67 6.94, -1.06 1.15" stroke="#000000" stroke-width="1" fill="none"></path></g><g transform="translate(1740 793) rotate(0 -40.28597537289386 0.7283192801009477)"><path d="M-27.55 -11.21 C-18.34 -3.82, -7.37 -2.3, 1.35 1.79 M-29.07 -10.59 C-22.73 -8.23, -16.65 -5.27, -1.06 1.15" stroke="#000000" stroke-width="1" fill="none"></path></g><g transform="translate(1740 793) rotate(0 -40.28597537289386 0.7283192801009477)"><path d="M-50.42 -10.74 C-61.93 -3.52, -71.68 -1.88, -77.58 2.58 M-51.94 -10.13 C-56.95 -8.21, -62.23 -5.18, -79.99 1.94" stroke="#000000" stroke-width="1" fill="none"></path></g><g transform="translate(1740 793) rotate(0 -40.28597537289386 0.7283192801009477)"><path d="M-49.99 9.77 C-61.75 9.41, -71.66 3.47, -77.58 2.58 M-51.51 10.39 C-56.51 8.15, -61.87 7.02, -79.99 1.94" stroke="#000000" stroke-width="1" fill="none"></path></g></g><g stroke-linecap="round"><g transform="translate(1490 789) rotate(0 -46.132920927926875 0.5110899150185446)"><path d="M0.6 -0.58 C-15.03 -0.35, -77.49 1, -92.86 0.93 M-0.55 1.73 C-15.88 1.68, -75.33 -0.38, -90.61 -0.7" stroke="#000000" stroke-width="1" fill="none"></path></g><g transform="translate(1490 789) rotate(0 -46.132920927926875 0.5110899150185446)"><path d="M-28.37 8.75 C-15.3 6.61, -8 3.76, -0.93 0.5 M-26.5 10.86 C-17.37 7.07, -6.08 2.06, -0.04 -1.17" stroke="#000000" stroke-width="1" fill="none"></path></g><g transform="translate(1490 789) rotate(0 -46.132920927926875 0.5110899150185446)"><path d="M-28.74 -11.77 C-15.62 -6.21, -8.18 -1.36, -0.93 0.5 M-26.87 -9.66 C-17.62 -5.84, -6.19 -3.24, -0.04 -1.17" stroke="#000000" stroke-width="1" fill="none"></path></g><g transform="translate(1490 789) rotate(0 -46.132920927926875 0.5110899150185446)"><path d="M-63.11 -11.6 C-71.31 -5.87, -85.2 -1.13, -92.14 0.38 M-61.23 -9.5 C-73.06 -5.78, -82.71 -3.29, -91.25 -1.29" stroke="#000000" stroke-width="1" fill="none"></path></g><g transform="translate(1490 789) rotate(0 -46.132920927926875 0.5110899150185446)"><path d="M-63.69 8.91 C-71.59 6.94, -85.26 3.98, -92.14 0.38 M-61.81 11.02 C-73.41 7.12, -82.84 2.01, -91.25 -1.29" stroke="#000000" stroke-width="1" fill="none"></path></g></g><g stroke-linecap="round"><g transform="translate(199 546) rotate(0 88.26143172260379 -2.2320205759256737)"><path d="M0.54 -0.47 C29.95 -1.16, 147.86 -3.51, 177.15 -3.99 M-0.63 -1.77 C28.58 -2.26, 146.98 -1.86, 176.29 -2.45" stroke="#000000" stroke-width="1" fill="none"></path></g><g transform="translate(199 546) rotate(0 88.26143172260379 -2.2320205759256737)"><path d="M27.73 -11.05 C18.56 -8.46, 9.67 -3.37, -0.4 -0.53 M27.86 -11.57 C22.82 -8.08, 14.93 -6.31, 0.74 0.39" stroke="#000000" stroke-width="1" fill="none"></path></g><g transform="translate(199 546) rotate(0 88.26143172260379 -2.2320205759256737)"><path d="M28.15 9.47 C18.8 4.74, 9.77 2.5, -0.4 -0.53 M28.28 8.95 C23.34 7.84, 15.36 5.01, 0.74 0.39" stroke="#000000" stroke-width="1" fill="none"></path></g><g transform="translate(199 546) rotate(0 88.26143172260379 -2.2320205759256737)"><path d="M147.38 8.27 C158.22 3, 169.36 0.49, 175.34 -2.5 M147.51 7.74 C155.25 6.39, 159.94 3.39, 176.49 -1.58" stroke="#000000" stroke-width="1" fill="none"></path></g><g transform="translate(199 546) rotate(0 88.26143172260379 -2.2320205759256737)"><path d="M147.24 -12.26 C158.15 -10.19, 169.34 -5.37, 175.34 -2.5 M147.37 -12.78 C154.95 -9.53, 159.67 -7.93, 176.49 -1.58" stroke="#000000" stroke-width="1" fill="none"></path></g></g><g stroke-linecap="round"><g transform="translate(970 609) rotate(0 0.14406741332265938 39.59214557040485)"><path d="M-0.76 0.37 C-0.6 13.76, 0.04 66.55, 0.21 79.66 M1.05 -0.48 C1.13 12.61, -0.39 64.41, -0.63 77.89" stroke="#000000" stroke-width="1" fill="none"></path></g><g transform="translate(970 609) rotate(0 0.14406741332265938 39.59214557040485)"><path d="M-9.6 49.8 C-7 56.62, -5.77 64.08, -0.03 79.07 M-10.74 49.47 C-7.69 60.08, -3.73 70.6, -0.41 78.15" stroke="#000000" stroke-width="1" fill="none"></path></g><g transform="translate(970 609) rotate(0 0.14406741332265938 39.59214557040485)"><path d="M10.92 50.29 C8.67 56.86, 5.06 64.2, -0.03 79.07 M9.78 49.96 C5.46 60.58, 2.06 70.92, -0.41 78.15" stroke="#000000" stroke-width="1" fill="none"></path></g></g><g stroke-linecap="round"><g transform="translate(970.6242000204847 813) rotate(0 -0.5183115389053228 74.18858800886204)"><path d="M0.24 0.28 C0.11 25.03, -0.26 123.1, -0.54 147.65 M-1.09 -0.62 C-1.36 24.39, -1.05 124.12, -1.28 149" stroke="#000000" stroke-width="1" fill="none"></path></g><g transform="translate(970.6242000204847 813) rotate(0 -0.5183115389053228 74.18858800886204)"><path d="M-11.01 121.47 C-9.02 128.95, -5.91 139.13, -2.09 148.27 M-10.74 121.09 C-9.19 126.76, -6.24 133.83, -1.11 149.78" stroke="#000000" stroke-width="1" fill="none"></path></g><g transform="translate(970.6242000204847 813) rotate(0 -0.5183115389053228 74.18858800886204)"><path d="M9.51 121.52 C4.96 129.02, 1.53 139.19, -2.09 148.27 M9.78 121.14 C6.77 126.74, 5.16 133.8, -1.11 149.78" stroke="#000000" stroke-width="1" fill="none"></path></g></g><g stroke-linecap="round"><g transform="translate(928 957) rotate(0 -192.39467324126514 -169.89548122912652)"><path d="M0.93 -1.18 C-63.08 -57.44, -320.29 -282.44, -384.51 -338.66 M-0.04 0.81 C-64.21 -55.72, -321.5 -283.71, -385.72 -340.6" stroke="#000000" stroke-width="1" fill="none"></path></g><g transform="translate(928 957) rotate(0 -192.39467324126514 -169.89548122912652)"><path d="M-359.79 -330.43 C-364.49 -332.93, -371.52 -334.11, -386.46 -338.75 M-358.15 -328.93 C-368.4 -333.1, -376.77 -336.97, -385.11 -340.66" stroke="#000000" stroke-width="1" fill="none"></path></g><g transform="translate(928 957) rotate(0 -192.39467324126514 -169.89548122912652)"><path d="M-373.4 -315.07 C-374.37 -321.72, -377.81 -326.95, -386.46 -338.75 M-371.75 -313.57 C-377.07 -323.14, -380.6 -332.47, -385.11 -340.66" stroke="#000000" stroke-width="1" fill="none"></path></g></g><g stroke-linecap="round"><g transform="translate(474 46) rotate(0 0.8940948168002478 32.933943693526075)"><path d="M0.85 -0.85 C1.12 10.31, 1.78 55.32, 1.94 66.72 M-0.16 1.32 C-0.02 12.13, 1.13 54.03, 1.39 64.78" stroke="#000000" stroke-width="1" fill="none"></path></g><g transform="translate(474 46) rotate(0 0.8940948168002478 32.933943693526075)"><path d="M-11.01 38.11 C-5.43 47.03, -0.41 55.58, 1.6 66.3 M-10.52 37.14 C-6.98 44.31, -4.87 51.05, 2.27 64.22" stroke="#000000" stroke-width="1" fill="none"></path></g><g transform="translate(474 46) rotate(0 0.8940948168002478 32.933943693526075)"><path d="M9.51 37.59 C8.32 46.83, 6.56 55.54, 1.6 66.3 M9.99 36.62 C8.65 43.71, 5.88 50.58, 2.27 64.22" stroke="#000000" stroke-width="1" fill="none"></path></g></g><g stroke-linecap="round" transform="translate(463 17) rotate(0 10.5 11)"><path d="M7.9 -0.16 C10.06 -0.89, 13.57 0.14, 15.42 1.07 C17.26 1.99, 18 3.5, 18.97 5.4 C19.94 7.31, 21.67 10.25, 21.24 12.49 C20.8 14.73, 18.3 17.33, 16.35 18.84 C14.39 20.36, 11.79 21.59, 9.52 21.56 C7.24 21.54, 4.19 20.33, 2.69 18.7 C1.19 17.08, 0.73 14.22, 0.5 11.84 C0.27 9.46, -0.21 6.39, 1.29 4.42 C2.78 2.44, 7.95 0.57, 9.46 -0.02 C10.97 -0.62, 10.27 0.55, 10.33 0.85 M11.76 -0.69 C13.96 -0.82, 17.45 2.1, 18.91 3.83 C20.38 5.56, 20.57 7.47, 20.54 9.71 C20.51 11.95, 20.08 15.23, 18.73 17.27 C17.38 19.31, 14.28 21.32, 12.45 21.95 C10.62 22.58, 9.56 22.13, 7.77 21.07 C5.97 20.01, 2.96 17.55, 1.68 15.58 C0.4 13.61, -0.41 11.47, 0.07 9.22 C0.56 6.97, 2.78 3.59, 4.61 2.1 C6.43 0.6, 10.23 0.54, 11.02 0.27 C11.81 0, 9.48 0.13, 9.36 0.49" stroke="none" stroke-width="0" fill="#000000"></path><path d="M7.45 1.54 C9.41 0.32, 11.72 -0.59, 13.61 -0.06 C15.5 0.48, 17.58 2.64, 18.78 4.74 C19.98 6.84, 20.98 10.03, 20.8 12.52 C20.62 15.02, 19.24 18.1, 17.7 19.71 C16.16 21.32, 13.81 22.18, 11.56 22.2 C9.31 22.23, 5.91 21.36, 4.18 19.86 C2.44 18.35, 1.71 15.51, 1.14 13.15 C0.58 10.8, -0.41 7.84, 0.78 5.73 C1.98 3.62, 6.97 1.55, 8.32 0.5 C9.66 -0.55, 8.84 -0.61, 8.85 -0.57 M15.35 1.24 C17.45 1.6, 20.3 2.58, 21.19 4.38 C22.09 6.19, 21.57 9.36, 20.72 12.07 C19.88 14.78, 17.72 19.21, 16.13 20.64 C14.53 22.08, 13.37 21.03, 11.14 20.69 C8.92 20.36, 4.49 19.76, 2.78 18.64 C1.06 17.51, 1.13 16.43, 0.86 13.94 C0.59 11.46, -0.15 6.06, 1.13 3.74 C2.41 1.43, 6.21 0.62, 8.54 0.06 C10.87 -0.49, 14.23 0.32, 15.1 0.44 C15.97 0.56, 14.12 0.66, 13.74 0.78" stroke="#000000" stroke-width="1" fill="none"></path></g></svg>